# 3ds Max Wavefront OBJ Exporter v0.99 - (c)2007 guruware
# File Created: 26.04.2022 04:58:39

mtllib mooshroom.mtl

#
# object Mooshroom
#

v -6.0000 -5.0000 9.0000
v -6.0000 -5.0000 -9.0000
v 6.0000 -5.0000 -9.0000
v 6.0000 -5.0000 9.0000
v -6.0000 5.0000 9.0000
v 6.0000 5.0000 9.0000
v 6.0000 5.0000 -9.0000
v -6.0000 5.0000 -9.0000
v -4.0000 -1.0000 15.0000
v -4.0000 -1.0000 9.0000
v 4.0000 -1.0000 9.0000
v 4.0000 -1.0000 15.0000
v -4.0000 7.0000 15.0000
v 4.0000 7.0000 15.0000
v 4.0000 7.0000 9.0000
v -4.0000 7.0000 9.0000
v -5.0000 5.0000 13.0000
v -5.0000 5.0000 12.0000
v -4.0000 5.0000 12.0000
v -4.0000 5.0000 13.0000
v -5.0000 8.0000 13.0000
v -4.0000 8.0000 13.0000
v -4.0000 8.0000 12.0000
v -5.0000 8.0000 12.0000
v 4.0000 5.0000 13.0000
v 4.0000 5.0000 12.0000
v 5.0000 5.0000 12.0000
v 5.0000 5.0000 13.0000
v 4.0000 8.0000 13.0000
v 5.0000 8.0000 13.0000
v 5.0000 8.0000 12.0000
v 4.0000 8.0000 12.0000
v -6.0000 -17.0000 9.0000
v -6.0000 -17.0000 5.0000
v -2.0000 -17.0000 5.0000
v -2.0000 -17.0000 9.0000
v -2.0000 -5.0000 9.0000
v -2.0000 -5.0000 5.0000
v -6.0000 -5.0000 5.0000
v 2.0000 -17.0000 9.0000
v 2.0000 -17.0000 5.0000
v 6.0000 -17.0000 5.0000
v 6.0000 -17.0000 9.0000
v 2.0000 -5.0000 9.0000
v 6.0000 -5.0000 5.0000
v 2.0000 -5.0000 5.0000
v -6.0000 -17.0000 -5.0000
v -6.0000 -17.0000 -9.0000
v -2.0000 -17.0000 -9.0000
v -2.0000 -17.0000 -5.0000
v -6.0000 -5.0000 -5.0000
v -2.0000 -5.0000 -5.0000
v -2.0000 -5.0000 -9.0000
v 2.0000 -17.0000 -5.0000
v 2.0000 -17.0000 -9.0000
v 6.0000 -17.0000 -9.0000
v 6.0000 -17.0000 -5.0000
v 2.0000 -5.0000 -5.0000
v 6.0000 -5.0000 -5.0000
v 2.0000 -5.0000 -9.0000
v -1.6905 7.0000 8.3748
v 1.6905 7.0000 15.6252
v 1.6905 13.0000 15.6252
v -1.6905 13.0000 8.3748
v -3.6252 7.0000 13.6905
v 3.6252 7.0000 10.3095
v 3.6252 13.0000 10.3095
v -3.6252 13.0000 13.6905
v -4.8284 5.0000 -0.8284
v 0.8284 5.0000 4.8284
v 0.8284 11.0000 4.8284
v -4.8284 11.0000 -0.8284
v -4.8284 5.0000 4.8284
v 0.8284 5.0000 -0.8284
v 0.8284 11.0000 -0.8284
v -4.8284 11.0000 4.8284
v -2.0000 5.0000 -6.0000
v 6.0000 5.0000 -6.0000
v 6.0000 11.0000 -6.0000
v -2.0000 11.0000 -6.0000
v 2.0000 5.0000 -2.0000
v 2.0000 5.0000 -10.0000
v 2.0000 11.0000 -10.0000
v 2.0000 11.0000 -2.0000
# 84 vertices

vn 0.0000 -1.0000 -0.0000
vn 0.0000 1.0000 -0.0000
vn 0.0000 0.0000 1.0000
vn 1.0000 0.0000 -0.0000
vn 0.0000 0.0000 -1.0000
vn -1.0000 0.0000 -0.0000
vn -0.9063 -0.0000 0.4226
vn 0.4226 -0.0000 0.9063
vn -0.7071 -0.0000 0.7071
vn 0.7071 -0.0000 0.7071
vn 0.0000 -0.0000 1.0000
vn 1.0000 -0.0000 -0.0000
# 12 vertex normals

vt 0.4375 0.7814 0.0000
vt 0.4375 0.5000 0.0000
vt 0.6250 0.5000 0.0000
vt 0.6250 0.7814 0.0000
vt 0.9686 0.7814 0.0000
vt 0.7811 0.7814 0.0000
vt 0.7811 0.5000 0.0000
vt 0.9686 0.5000 0.0000
vt 0.6250 0.9375 0.0000
vt 0.4375 0.9375 0.0000
vt 0.8123 0.7814 0.0000
vt 0.8125 0.9375 0.0000
vt 0.2813 0.7814 0.0000
vt 0.2813 0.5000 0.0000
vt 0.2187 0.9063 0.0000
vt 0.2187 1.0000 0.0000
vt 0.3437 1.0000 0.0000
vt 0.3437 0.9063 0.0000
vt 0.0937 0.9060 0.0000
vt 0.2187 0.9060 0.0000
vt 0.0937 1.0000 0.0000
vt 0.0937 0.7814 0.0000
vt 0.2187 0.7814 0.0000
vt 0.3125 0.7814 0.0000
vt 0.3125 0.9060 0.0000
vt 0.4374 0.7814 0.0000
vt 0.4374 0.9060 0.0000
vt 0.0000 0.7814 0.0000
vt 0.0000 0.9060 0.0000
vt 0.3750 0.9844 0.0000
vt 0.3750 1.0000 0.0000
vt 0.3875 1.0000 0.0000
vt 0.3875 0.9844 0.0000
vt 0.3625 0.9844 0.0000
vt 0.3625 1.0000 0.0000
vt 0.3592 0.9375 0.0000
vt 0.3749 0.9375 0.0000
vt 0.3749 0.9844 0.0000
vt 0.3592 0.9844 0.0000
vt 0.3905 0.9375 0.0000
vt 0.3905 0.9844 0.0000
vt 0.4062 0.9375 0.0000
vt 0.4062 0.9844 0.0000
vt 0.3436 0.9375 0.0000
vt 0.3436 0.9844 0.0000
vt 0.1250 0.6875 0.0000
vt 0.1250 0.7500 0.0000
vt 0.1875 0.7500 0.0000
vt 0.1875 0.6875 0.0000
vt 0.0625 0.6875 0.0000
vt 0.0625 0.7500 0.0000
vt 0.0625 0.5000 0.0000
vt 0.1250 0.5000 0.0000
vt 0.1875 0.5000 0.0000
vt 0.2500 0.5000 0.0000
vt 0.2500 0.6875 0.0000
vt 0.0000 0.5000 0.0000
vt 0.0000 0.6875 0.0000
vt 0.8125 0.7814 0.0000
vt 0.9375 0.7814 0.0000
vt 0.9375 0.8750 0.0000
vt 0.8125 0.8750 0.0000
# 62 texture coords

o Mooshroom
g Mooshroom
usemtl Mooshroom
s off
f 1/1/1 2/2/1 3/3/1 4/4/1 
f 5/5/2 6/6/2 7/7/2 8/8/2 
f 1/1/3 4/4/3 6/9/3 5/10/3 
f 4/4/4 3/3/4 7/7/4 6/6/4 
f 3/4/5 2/11/5 8/12/5 7/9/5 
f 2/2/6 1/1/6 5/13/6 8/14/6 
f 9/15/1 10/16/1 11/17/1 12/18/1 
f 13/19/2 14/20/2 15/16/2 16/21/2 
f 9/22/3 12/23/3 14/20/3 13/19/3 
f 12/23/4 11/24/4 15/25/4 14/20/4 
f 11/24/5 10/26/5 16/27/5 15/25/5 
f 10/28/6 9/22/6 13/19/6 16/29/6 
f 17/30/1 18/31/1 19/32/1 20/33/1 
f 21/34/2 22/30/2 23/31/2 24/35/2 
f 17/36/3 20/37/3 22/38/3 21/39/3 
f 20/37/4 19/40/4 23/41/4 22/38/4 
f 19/40/5 18/42/5 24/43/5 23/41/5 
f 18/44/6 17/36/6 21/39/6 24/45/6 
f 25/30/1 26/31/1 27/32/1 28/33/1 
f 29/34/2 30/30/2 31/31/2 32/35/2 
f 25/36/3 28/37/3 30/38/3 29/39/3 
f 28/37/4 27/40/4 31/41/4 30/38/4 
f 27/40/5 26/42/5 32/43/5 31/41/5 
f 26/44/6 25/36/6 29/39/6 32/45/6 
f 33/46/1 34/47/1 35/48/1 36/49/1 
f 1/50/2 37/46/2 38/47/2 39/51/2 
f 33/52/3 36/53/3 37/46/3 1/50/3 
f 36/53/4 35/54/4 38/49/4 37/46/4 
f 35/54/5 34/55/5 39/56/5 38/49/5 
f 34/57/6 33/52/6 1/50/6 39/58/6 
f 40/46/1 41/47/1 42/48/1 43/49/1 
f 44/50/2 4/46/2 45/47/2 46/51/2 
f 40/52/3 43/53/3 4/46/3 44/50/3 
f 43/53/4 42/54/4 45/49/4 4/46/4 
f 42/54/5 41/55/5 46/56/5 45/49/5 
f 41/57/6 40/52/6 44/50/6 46/58/6 
f 47/46/1 48/47/1 49/48/1 50/49/1 
f 51/50/2 52/46/2 53/47/2 2/51/2 
f 47/52/3 50/53/3 52/46/3 51/50/3 
f 50/53/4 49/54/4 53/49/4 52/46/4 
f 49/54/5 48/55/5 2/56/5 53/49/5 
f 48/57/6 47/52/6 51/50/6 2/58/6 
f 54/46/1 55/47/1 56/48/1 57/49/1 
f 58/50/2 59/46/2 3/47/2 60/51/2 
f 54/52/3 57/53/3 59/46/3 58/50/3 
f 57/53/4 56/54/4 3/49/4 59/46/4 
f 56/54/5 55/55/5 60/56/5 3/49/5 
f 55/57/6 54/52/6 58/50/6 60/58/6 
f 61/59/7 62/60/7 63/61/7 64/62/7 
f 65/59/8 66/60/8 67/61/8 68/62/8 
f 69/59/9 70/60/9 71/61/9 72/62/9 
f 73/59/10 74/60/10 75/61/10 76/62/10 
f 77/59/11 78/60/11 79/61/11 80/62/11 
f 81/59/12 82/60/12 83/61/12 84/62/12 
# 54 polygons

